HIERARCHY
ROOT Hips
{
    OFFSET 0.0 0.0 0.0
    CHANNELS 6 Xposition Yposition Zposition Zrotation Xrotation Yrotation
    JOINT LeftHipJoint
    {
        OFFSET 0.1 0.0 0.0
        CHANNELS 3 Zrotation Xrotation Yrotation
        JOINT LeftUpLeg
        {
            OFFSET 119.13754340622629 0.0 0.0
            CHANNELS 3 Zrotation Xrotation Yrotation
            JOINT LeftLeg
            {
                OFFSET 0.0 0.0 -407.86383736572634
                CHANNELS 3 Zrotation Xrotation Yrotation
                JOINT LeftFoot
                {
                    OFFSET 0.0 0.0 -395.70472279859854
                    CHANNELS 3 Zrotation Xrotation Yrotation
                    End Site
                    {
                        OFFSET 0.0 -0.1 0.0
                    }
                }
            }
        }
    }
    JOINT LowerBack
    {
        OFFSET 0.0 0.0 0.1
        CHANNELS 3 Zrotation Xrotation Yrotation
        JOINT Spine
        {
            OFFSET 0.0 0.0 218.41318794886976
            CHANNELS 3 Zrotation Xrotation Yrotation
            JOINT Spine1
            {
                OFFSET 0.0 0.0 251.79001281661408
                CHANNELS 3 Zrotation Xrotation Yrotation
                JOINT LeftShoulder
                {
                    OFFSET 0.1 0.0 0.0
                    CHANNELS 3 Zrotation Xrotation Yrotation
                    JOINT LeftArm
                    {
                        OFFSET 142.96018974309752 0.0 0.0
                        CHANNELS 3 Zrotation Xrotation Yrotation
                        JOINT LeftForeArm
                        {
                            OFFSET 257.9963392941739 0.0 0.0
                            CHANNELS 3 Zrotation Xrotation Yrotation
                            JOINT LeftHand
                            {
                                OFFSET 243.69227322334893 0.0 0.0
                                CHANNELS 3 Zrotation Xrotation Yrotation
                                End Site
                                {
                                    OFFSET 0.1 0.0 0.0
                                }
                            }
                        }
                    }
                }
                JOINT Neck
                {
                    OFFSET 0.0 0.0 0.1
                    CHANNELS 3 Zrotation Xrotation Yrotation
                    JOINT Neck1
                    {
                        OFFSET 0.0 0.0 107.04408270822955
                        CHANNELS 3 Zrotation Xrotation Yrotation
                        End Site
                        {
                            OFFSET 0.0 0.0 116.23049453119611
                        }
                    }
                }
                JOINT RightShoulder
                {
                    OFFSET -0.1 0.0 0.0
                    CHANNELS 3 Zrotation Xrotation Yrotation
                    JOINT RightArm
                    {
                        OFFSET -142.96018974309752 0.0 0.0
                        CHANNELS 3 Zrotation Xrotation Yrotation
                        JOINT RightForeArm
                        {
                            OFFSET -257.9963392941739 0.0 0.0
                            CHANNELS 3 Zrotation Xrotation Yrotation
                            JOINT RightHand
                            {
                                OFFSET -243.69227322334893 0.0 0.0
                                CHANNELS 3 Zrotation Xrotation Yrotation
                                End Site
                                {
                                    OFFSET -0.1 0.0 0.0
                                }
                            }
                        }
                    }
                }
            }
        }
    }
    JOINT RightHipJoint
    {
        OFFSET -0.1 0.0 0.0
        CHANNELS 3 Zrotation Xrotation Yrotation
        JOINT RightUpLeg
        {
            OFFSET -119.13754340622629 0.0 0.0
            CHANNELS 3 Zrotation Xrotation Yrotation
            JOINT RightLeg
            {
                OFFSET 0.0 0.0 -407.86383736572634
                CHANNELS 3 Zrotation Xrotation Yrotation
                JOINT RightFoot
                {
                    OFFSET 0.0 0.0 -395.70472279859854
                    CHANNELS 3 Zrotation Xrotation Yrotation
                    End Site
                    {
                        OFFSET 0.0 -0.1 0.0
                    }
                }
            }
        }
    }
}
MOTION
Frames: 6
Frame Time: 0.03333333333333333
0.0 0.0 810.3090369150777 24.59355035933379 2.3282154955954066 3.6522088503682624 4.310455369189608e-35 -9.939233379573489e-17 4.9696166897867443e-17 -0.13846512733317456 -15.639108127167447 0.31780167569570894 0.32962810377450347 21.558307251924052 -0.5000919259831984 0.0 0.0 -1.987846675914698e-16 4.310455369189608e-35 -9.939233379573489e-17 4.9696166897867443e-17 0.010807697231969378 1.2415893020918725 -1.4826910813896819 3.6891994624671596 -8.014492305788403e-17 5.99244294049154e-16 0.0 0.0 0.0 -31.268736807986265 10.901880762242815 80.15816108886469 -22.20200049290619 -1.1864884353753431e-15 6.047023304359188e-15 4.482873583957193e-33 7.951386703658792e-16 -6.460501696722769e-16 0.0 0.0 0.0 -2.8240046905556673 -0.7762524023432779 0.18825627237097334 0.0 0.0 0.0 25.003941106695645 6.837080669284042 -72.42173489624462 37.10143523336391 -1.307307720725805e-14 1.0321965526591907e-15 0.0 0.0 3.1805546814635168e-15 4.310455369189608e-35 -9.939233379573489e-17 4.9696166897867443e-17 -0.10243456661207764 -11.49434771226676 -2.6746561265264535 -0.7653765220930423 19.46512960589502 0.1710272773058608 0.0 0.0 -7.951386703658792e-16
0.0 0.0 810.3090369150777 24.6530874899616 2.3190815874077306 3.7374523553207766 0.0 0.0 2.981770013872047e-16 -0.1395658435267636 -15.672053376532185 0.24274306290871964 0.3054342503271069 21.828294134914977 -0.4986860020607736 0.0 0.0 3.975693351829396e-16 0.0 0.0 2.981770013872047e-16 0.010396967293523686 1.187035260826039 -1.5359488631417535 3.699092105781888 2.018889994075132e-16 9.292476529454928e-17 0.0 3.9756933518293955e-16 0.0 -31.089781322435783 10.79844166022582 80.09241841719691 -22.178889226769492 -1.3226043687542337e-15 1.0881951984775212e-14 0.0 0.0 -1.987846675914698e-15 0.0 3.9756933518293955e-16 0.0 -2.9851125314607314 -0.8604737004146166 0.17175065635105438 0.0 3.9756933518293955e-16 0.0 24.800166602110803 6.6782434434798645 -72.21743864825523 37.36587160603224 9.31766027831345e-16 -1.710244796632882e-14 0.0 0.0 -1.5902773407317584e-15 0.0 0.0 2.981770013872047e-16 -0.10307338439099596 -11.48668513361968 -2.7495861450170165 -0.7975484077389398 19.618956158046768 0.22579299600816216 0.0 0.0 -3.9756933518293955e-16
0.0 0.0 810.3090369150777 24.812973740831985 2.263216587079955 3.768420354959488 0.0 0.0 -1.987846675914698e-16 -0.12637811026790868 -15.701467583157562 0.23504026535593847 0.2855062797397101 22.0399520265289 -0.5179791172797749 0.0 0.0 -1.987846675914698e-16 0.0 0.0 -1.987846675914698e-16 0.009742368652445606 1.2294286002853978 -1.5403895933143594 3.6599823543483514 -7.112614379048119e-16 -4.7449028676509885e-16 0.0 0.0 9.93923337957349e-17 -30.953913618355227 10.821382881222998 80.069017529913 -22.265783766519423 -4.797000207563398e-15 1.2022223083236711e-14 0.0 0.0 9.93923337957349e-17 0.0 0.0 9.93923337957349e-17 -3.1464033635130915 -0.8991811798656525 0.12039929837520745 0.0 0.0 9.93923337957349e-17 24.255888940883185 6.477978506669274 -72.20340616737435 37.594734028872686 -8.071524274809689e-15 -3.972143065826542e-15 0.0 0.0 -3.1805546814635168e-15 0.0 0.0 -1.987846675914698e-16 -0.09246454451091747 -11.375760593681616 -2.794625457912634 -0.832704660150575 19.653749530865984 0.27709354212047166 3.1805546814635164e-15 -9.939233379573489e-17 2.758691436281349e-33
0.0 0.0 810.3090369150777 24.912428322241716 2.2303715089916687 3.8100300211029476 -3.1805546814635168e-15 5.517382872562698e-33 -1.987846675914698e-16 -0.11333078464648036 -15.731065894333632 0.24915200584205283 0.274009682743698 22.229051436233068 -0.5414629597848029 0.0 0.0 -3.975693351829396e-16 -3.1805546814635168e-15 5.517382872562698e-33 -1.987846675914698e-16 0.008669685355629795 1.2207143054545029 -1.5736355828014295 3.6282171051453505 2.854417500518032e-16 -4.068094243763701e-16 0.0 0.0 -2.981770013872047e-16 -30.652662124209737 11.024315596326232 80.16937566686185 -22.321094163129878 -7.181583615186396e-15 1.175321333319196e-14 0.0 0.0 1.7393658414253607e-15 0.0 0.0 -2.981770013872047e-16 -3.269557089104467 -1.01030564477023 0.06829429197201331 0.0 0.0 -2.981770013872047e-16 24.006546420088025 6.631646056809911 -72.15832198471573 38.050092033155344 2.9032357789116258e-15 -1.1094065398904985e-14 0.0 0.0 0.0 -3.1805546814635168e-15 5.517382872562698e-33 -1.987846675914698e-16 -0.0828171194771484 -11.348293164029132 -2.847425217280642 -0.872942265767265 19.74034652217494 0.3259325721993078 0.0 0.0 -3.975693351829396e-16
0.0 0.0 810.3090369150777 25.009009688391203 2.2723995327468356 3.8491293136692284 0.0 0.0 -4.969616689786745e-17 -0.09863998728188789 -15.924329050148854 0.24737284631749631 0.25377318342310695 22.585276026355487 -0.5509851053494484 0.0 0.0 0.0 0.0 0.0 -4.969616689786745e-17 0.007161893291878171 1.1717365161133377 -1.5588804046959024 3.61457691272513 -6.922656162985864e-16 1.2128527263801458e-16 3.4483642953516864e-34 3.9756933518293955e-16 -9.939233379573489e-17 -30.074766201277473 11.248566458311842 80.19432786882881 -22.29934200192122 3.5729615550867394e-16 2.2991175687149032e-15 0.0 0.0 -1.1430118386509513e-15 3.4483642953516864e-34 3.9756933518293955e-16 -9.939233379573489e-17 -3.3335357210297283 -1.0343895665052183 0.031192276030277973 3.4483642953516864e-34 3.9756933518293955e-16 -9.939233379573489e-17 23.73759940007448 6.861964754899785 -72.27881144991562 38.464347490835586 -6.285989073688421e-15 -1.801831713311572e-14 0.0 0.0 -1.5902773407317584e-15 0.0 0.0 -4.969616689786745e-17 -0.0719317800470697 -11.427895038999862 -2.8589630204301244 -0.9094317282237826 19.97512886347327 0.2762327081639264 0.0 0.0 0.0
0.0 0.0 810.3090369150777 25.07485579894735 2.144202757428464 3.918088438354703 0.0 0.0 -9.939233379573489e-17 -0.09607505857032306 -16.040051696757974 0.24096943302832383 0.2510928480275307 22.989180621836987 -0.635909898894196 -2.758691436281349e-33 -1.5902773407317584e-15 -1.987846675914698e-16 0.0 0.0 -9.939233379573489e-17 0.006988612863813138 1.1823998273422194 -1.5956494058991406 3.5126032294761425 3.1936046938267235e-16 6.862808314405413e-16 0.0 0.0 -9.93923337957349e-17 -30.137459680899692 11.504510182569225 80.33495573607756 -22.107377970384054 1.1234018352064247e-15 -1.6034203102716388e-15 0.0 0.0 -7.454425034680117e-16 0.0 0.0 -9.93923337957349e-17 -3.2918152011410653 -0.943584455240311 0.013055128480854543 0.0 0.0 -9.93923337957349e-17 23.49357025025933 7.569259256018442 -72.4634119520206 39.49920461788029 8.13642212594154e-15 3.837454839177246e-15 0.0 0.0 0.0 0.0 0.0 -9.939233379573489e-17 -0.06895511787199007 -11.323566142243365 -2.9254207997693764 -0.9442652345437006 20.098511863276965 0.33473136847514595 0.0 0.0 -3.975693351829396e-16
